<svg xmlns="http://www.w3.org/2000/svg" viewBox="13.623 -75.9521 76.4405 76.29390000000001">
  <path d="M 26.0742 0.3418 L 71.2402 0.3418 Q 76.4648 0.3418 79.3945 -2.71 Q 82.3242 -5.7617 82.3242 -11.9141 L 82.3242 -52.8809 L 75.2441 -45.8496 L 75.2441 -12.3047 Q 75.2441 -9.5215 73.999 -8.1055 Q 72.7539 -6.6894 71.1426 -6.6894 L 26.1719 -6.6894 Q 23.5352 -6.6894 22.1191 -8.1055 Q 20.7031 -9.5215 20.7031 -12.3047 L 20.7031 -55.6641 Q 20.7031 -58.4473 22.1191 -59.8633 Q 23.5352 -61.2793 26.1719 -61.2793 L 60.2539 -61.2793 L 67.2852 -68.3105 L 26.0742 -68.3105 Q 19.873 -68.3105 16.748 -65.2588 Q 13.623 -62.207 13.623 -56.0547 L 13.623 -11.9141 Q 13.623 -5.7617 16.748 -2.71 Q 19.873 0.3418 26.0742 0.3418 Z M 39.4043 -24.1211 L 47.4121 -27.5391 L 83.1543 -63.2812 L 77.3926 -68.8965 L 41.6992 -33.2031 L 38.0859 -25.4883 Q 37.793 -24.9512 38.2812 -24.4141 Q 38.7695 -23.877 39.4043 -24.1211 Z M 86.1328 -66.2598 L 89.0625 -69.2383 Q 90.0391 -70.3125 90.0635 -71.6797 Q 90.0879 -73.0469 89.0625 -74.0234 L 87.9883 -75.0977 Q 87.0605 -76.0254 85.7178 -75.9521 Q 84.375 -75.8789 83.3984 -74.9023 l -2.9785 2.9296 z" fill="#000000"/>
</svg>