<?xml version="1.0" encoding="UTF-8"?>
<!DOCTYPE svg
PUBLIC "-//W3C//DTD SVG 1.1//EN"
       "http://www.w3.org/Graphics/SVG/1.1/DTD/svg11.dtd">
<svg version="1.1" xmlns="http://www.w3.org/2000/svg" width="3300" height="2200">
 <g id="Symbols">
  <g id="Black-L" transform="matrix(1 0 0 1 2852.25 1556)">
   <path d="M45.6543 26.5137L117.285 26.5137Q128.271 26.5137 134.399 20.3125Q140.527 14.1113 140.527 2.68555L140.527-61.3281L120.312-41.0645L120.312-0.146484Q120.312 3.27148 118.774 4.78516Q117.236 6.29883 114.551 6.29883L48.3887 6.29883Q45.2148 6.29883 43.6035 4.78516Q41.9922 3.27148 41.9922-0.146484L41.9922-65.625Q41.9922-69.043 43.6035-70.5566Q45.2148-72.0703 48.3887-72.0703L89.7461-72.0703L110.01-92.2852L45.6543-92.2852Q34.2285-92.2852 27.9785-86.084Q21.7285-79.8828 21.7285-68.457L21.7285 2.68555Q21.7285 14.1113 27.9785 20.3125Q34.2285 26.5137 45.6543 26.5137ZM72.1191-19.6289L87.0117-25.3906L139.209-77.5879L126.025-90.7227L73.877-38.5254L68.0176-23.7793Q67.2852-21.7773 68.8232-20.3857Q70.3613-18.9941 72.1191-19.6289ZM143.604-81.9824L149.17-87.8906Q151.562-90.4297 151.782-93.75Q152.002-97.0703 149.658-99.5605L147.363-101.953Q145.312-104.053 142.017-103.613Q138.721-103.174 136.279-100.781L130.469-95.166Z"/>
  </g>
  <g id="Heavy-L" transform="matrix(1 0 0 1 2556.34 1556)">
   <path d="M44.7266 25.4395L116.797 25.4395Q127.197 25.4395 132.959 19.5801Q138.721 13.7207 138.721 2.7832L138.721-62.0117L121.24-44.4824L121.24 0.488281Q121.24 4.3457 119.458 6.15234Q117.676 7.95898 114.697 7.95898L46.8262 7.95898Q43.2129 7.95898 41.3574 6.15234Q39.502 4.3457 39.502 0.488281L39.502-66.4062Q39.502-70.2637 41.3574-72.0459Q43.2129-73.8281 46.8262-73.8281L92.2852-73.8281L109.814-91.3086L44.7266-91.3086Q33.7891-91.3086 27.8809-85.4736Q21.9727-79.6387 21.9727-68.6523L21.9727 2.7832Q21.9727 13.7207 27.8809 19.5801Q33.7891 25.4395 44.7266 25.4395ZM70.6055-19.5801L84.668-25.1953L138.379-78.9062L126.514-90.7715L72.8027-37.0605L67.0898-23.1934Q66.4551-21.4844 67.7734-20.2637Q69.0918-19.043 70.6055-19.5801ZM142.822-83.3008L148.047-88.8672Q150.244-91.1621 150.415-94.1406Q150.586-97.1191 148.438-99.3652L146.436-101.514Q144.531-103.418 141.577-103.052Q138.623-102.686 136.377-100.537L130.957-95.2148Z"/>
  </g>
  <g id="Bold-L" transform="matrix(1 0 0 1 2260.51 1556)">
   <path d="M43.7012 24.2188L116.309 24.2188Q125.977 24.2188 131.323 18.75Q136.67 13.2812 136.67 2.92969L136.67-62.7441L122.266-48.291L122.266 1.26953Q122.266 5.61523 120.215 7.71484Q118.164 9.81445 114.844 9.81445L45.1172 9.81445Q41.0156 9.81445 38.8428 7.71484Q36.6699 5.61523 36.6699 1.26953L36.6699-67.2852Q36.6699-71.6309 38.8428-73.7305Q41.0156-75.8301 45.1172-75.8301L95.166-75.8301L109.668-90.2832L43.7012-90.2832Q33.252-90.2832 27.7344-84.8145Q22.2168-79.3457 22.2168-68.9453L22.2168 2.92969Q22.2168 13.3301 27.7344 18.7744Q33.252 24.2188 43.7012 24.2188ZM68.9453-19.5801L82.0312-24.9512L137.5-80.4199L127.051-90.8691L71.6309-35.4004L66.0156-22.5098Q65.4785-21.1914 66.5771-20.1416Q67.6758-19.0918 68.9453-19.5801ZM141.943-84.8145L146.826-89.9414Q148.779-91.9922 148.901-94.6045Q149.023-97.2168 147.119-99.1699L145.361-100.977Q143.652-102.734 141.064-102.441Q138.477-102.148 136.523-100.244L131.494-95.3125Z"/>
  </g>
  <g id="Semibold-L" transform="matrix(1 0 0 1 1964.43 1556)">
   <path d="M42.9688 23.3887L115.918 23.3887Q125.146 23.3887 130.2 18.1885Q135.254 12.9883 135.254 2.97852L135.254-63.2812L122.949-50.9277L122.949 1.75781Q122.949 6.44531 120.703 8.76465Q118.457 11.084 114.941 11.084L43.9453 11.084Q39.4531 11.084 37.085 8.76465Q34.7168 6.44531 34.7168 1.75781L34.7168-67.8711Q34.7168-72.5586 37.085-74.8779Q39.4531-77.1973 43.9453-77.1973L97.1191-77.1973L109.521-89.502L42.9688-89.502Q32.9102-89.502 27.6611-84.3018Q22.4121-79.1016 22.4121-69.0918L22.4121 2.97852Q22.4121 12.9883 27.6611 18.1885Q32.9102 23.3887 42.9688 23.3887ZM67.7734-19.5312L80.2246-24.8047L136.865-81.4453L127.393-90.8691L70.8008-34.2285L65.2832-22.0703Q64.8438-20.9473 65.7471-20.0195Q66.6504-19.0918 67.7734-19.5312ZM141.309-85.791L145.996-90.6738Q147.754-92.5781 147.852-94.8975Q147.949-97.2168 146.191-99.0234L144.629-100.635Q143.066-102.197 140.723-101.978Q138.379-101.758 136.621-100L131.836-95.3125Z"/>
  </g>
  <g id="Medium-L" transform="matrix(1 0 0 1 1668.19 1556)">
   <path d="M42.4316 22.7539L115.625 22.7539Q124.512 22.7539 129.346 17.749Q134.18 12.7441 134.18 3.02734L134.18-63.6719L123.486-52.9297L123.486 2.14844Q123.486 7.08008 121.094 9.5459Q118.701 12.0117 115.039 12.0117L43.0176 12.0117Q38.2812 12.0117 35.7666 9.5459Q33.252 7.08008 33.252 2.14844L33.252-68.3594Q33.252-73.291 35.7666-75.7568Q38.2812-78.2227 43.0176-78.2227L98.6328-78.2227L109.424-88.9648L42.4316-88.9648Q32.6172-88.9648 27.5635-83.96Q22.5098-78.9551 22.5098-69.2383L22.5098 3.02734Q22.5098 12.793 27.5635 17.7734Q32.6172 22.7539 42.4316 22.7539ZM66.8945-19.5312L78.8574-24.6582L136.426-82.2266L127.686-90.918L70.166-33.3496L64.7461-21.6797Q64.3066-20.752 65.1123-19.9219Q65.918-19.0918 66.8945-19.5312ZM140.82-86.5723L145.312-91.2598Q147.021-92.9688 147.07-95.1172Q147.119-97.2656 145.508-98.9258L144.092-100.342Q142.578-101.855 140.454-101.685Q138.33-101.514 136.67-99.8535L132.129-95.3613Z"/>
  </g>
  <g id="Regular-L" transform="matrix(1 0 0 1 1372.09 1556)">
   <path d="M41.6992 21.9238L115.283 21.9238Q123.682 21.9238 128.247 17.1875Q132.812 12.4512 132.812 3.125L132.812-64.1602L124.17-55.5176L124.17 2.63672Q124.17 7.91016 121.606 10.5957Q119.043 13.2812 115.137 13.2812L41.8457 13.2812Q36.7676 13.2812 34.0576 10.5957Q31.3477 7.91016 31.3477 2.63672L31.3477-68.9453Q31.3477-74.2188 34.0576-76.9043Q36.7676-79.5898 41.8457-79.5898L100.586-79.5898L109.277-88.2324L41.6992-88.2324Q32.2754-88.2324 27.4902-83.4961Q22.7051-78.7598 22.7051-69.3848L22.7051 3.125Q22.7051 12.5 27.4902 17.2119Q32.2754 21.9238 41.6992 21.9238ZM65.7227-19.4824L77.0508-24.5117L135.791-83.252L128.027-90.9668L69.3359-32.2266L64.0137-21.2402Q63.6719-20.5566 64.3066-19.8486Q64.9414-19.1406 65.7227-19.4824ZM140.234-87.5977L144.482-91.9922Q145.996-93.5547 146.021-95.4346Q146.045-97.3145 144.58-98.7793L143.359-100Q141.992-101.367 140.112-101.245Q138.232-101.123 136.768-99.6582L132.471-95.4102Z"/>
  </g>
  <g id="Light-L" transform="matrix(1 0 0 1 1076.25 1556)">
   <path d="M40.8203 20.9473L113.867 20.9473Q122.119 20.9473 126.538 16.4062Q130.957 11.8652 130.957 3.07617L130.957-64.0625L124.316-57.4707L124.316 2.73438Q124.316 8.44727 121.411 11.377Q118.506 14.3066 113.721 14.3066L40.9668 14.3066Q35.3516 14.3066 32.3975 11.377Q29.4434 8.44727 29.4434 2.73438L29.4434-68.9941Q29.4434-74.707 32.3975-77.6367Q35.3516-80.5664 40.9668-80.5664L101.562-80.5664L108.203-87.207L40.8203-87.207Q31.9336-87.207 27.3926-82.6904Q22.8516-78.1738 22.8516-69.3359L22.8516 3.07617Q22.8516 11.9141 27.3926 16.4307Q31.9336 20.9473 40.8203 20.9473ZM66.3086-21.2402L76.3672-25.8789L135.01-84.5215L128.418-91.1133L69.7754-32.4707L64.9414-22.6562Q64.5996-22.0703 65.1367-21.5088Q65.6738-20.9473 66.3086-21.2402ZM139.111-88.5254L142.969-92.4805Q144.385-93.9453 144.434-95.5566Q144.482-97.168 143.115-98.5352L142.285-99.3652Q141.016-100.635 139.355-100.513Q137.695-100.391 136.377-99.0234L132.471-95.166Z"/>
  </g>
  <g id="Thin-L" transform="matrix(1 0 0 1 780.69 1556)">
   <path d="M39.6484 19.5801L112.012 19.5801Q120.068 19.5801 124.268 15.332Q128.467 11.084 128.467 3.02734L128.467-63.9648L124.512-60.1074L124.512 2.83203Q124.512 9.17969 121.191 12.4268Q117.871 15.6738 111.865 15.6738L39.7949 15.6738Q33.4473 15.6738 30.2002 12.4268Q26.9531 9.17969 26.9531 2.83203L26.9531-68.9941Q26.9531-75.3906 30.2002-78.6377Q33.4473-81.8848 39.7949-81.8848L102.832-81.8848L106.787-85.791L39.6484-85.791Q31.4941-85.791 27.2461-81.5918Q22.998-77.3926 22.998-69.2383L22.998 3.02734Q22.998 11.1816 27.2461 15.3809Q31.4941 19.5801 39.6484 19.5801ZM67.0898-23.584L75.4395-27.6367L133.984-86.1816L128.955-91.3574L70.3613-32.8125L66.1133-24.5605Q65.8691-24.1211 66.2598-23.7305Q66.6504-23.3398 67.0898-23.584ZM137.598-89.6973L140.967-93.0664Q142.285-94.4336 142.358-95.7275Q142.432-97.0215 141.162-98.2422L140.869-98.5352Q139.746-99.6582 138.403-99.5361Q137.061-99.4141 135.84-98.1934L132.471-94.8242Z"/>
  </g>
  <g id="Ultralight-L" transform="matrix(1 0 0 1 484.565 1556)">
   <path d="M39.0137 18.9453L111.084 18.9453Q118.994 18.9453 123.096 14.8193Q127.197 10.6934 127.197 2.97852L127.197-63.916L124.609-61.4258L124.609 2.88086Q124.609 9.52148 121.045 12.9395Q117.48 16.3574 110.938 16.3574L39.209 16.3574Q32.5195 16.3574 29.1016 12.9395Q25.6836 9.52148 25.6836 2.88086L25.6836-69.043Q25.6836-75.7324 29.1016-79.126Q32.5195-82.5195 39.209-82.5195L103.516-82.5195L106.055-85.1074L39.0137-85.1074Q31.2988-85.1074 27.1973-81.0547Q23.0957-77.002 23.0957-69.1895L23.0957 2.97852Q23.0957 10.791 27.1973 14.8682Q31.2988 18.9453 39.0137 18.9453ZM67.4805-24.7559L74.9512-28.5645L133.496-87.0605L129.199-91.4551L70.6543-32.959L66.748-25.4883Q66.5039-25.1465 66.8213-24.8779Q67.1387-24.6094 67.4805-24.7559ZM136.816-90.332L139.941-93.4082Q141.211-94.6777 141.284-95.8008Q141.357-96.9238 140.186-98.0957L140.137-98.0957Q139.062-99.1211 137.866-99.0234Q136.67-98.9258 135.547-97.8027L132.471-94.6777Z"/>
  </g>
  <g id="Black-M" transform="matrix(1 0 0 1 2870.12 1126)">
   <path d="M35.8887 13.2324L90.8203 13.2324Q99.8047 13.2324 104.834 8.17871Q109.863 3.125 109.863-5.9082L109.863-54.834L92.4805-37.5L92.4805-8.59375Q92.4805-6.15234 91.4062-5.12695Q90.332-4.10156 88.1836-4.10156L38.4766-4.10156Q36.2793-4.10156 35.1562-5.12695Q34.0332-6.15234 34.0332-8.59375L34.0332-58.1055Q34.0332-60.5469 35.1562-61.5723Q36.2793-62.5977 38.4766-62.5977L67.7246-62.5977L85.0586-79.9316L35.8887-79.9316Q26.8066-79.9316 21.7529-74.8779Q16.6992-69.8242 16.6992-60.791L16.6992-5.9082Q16.6992 3.125 21.7529 8.17871Q26.8066 13.2324 35.8887 13.2324ZM57.373-23.7793L69.1895-28.2227L108.301-67.3828L97.4121-78.2715L58.3008-39.1602L53.8574-27.3438Q53.1738-25.5859 54.5166-24.4141Q55.8594-23.2422 57.373-23.7793ZM111.621-70.6543L116.064-75.3906Q118.018-77.4902 118.262-80.2734Q118.506-83.0566 116.504-85.1562L114.648-87.1094Q112.988-88.8672 110.205-88.4521Q107.422-88.0371 105.371-86.0352L100.684-81.543Z"/>
  </g>
  <g id="Heavy-M" transform="matrix(1 0 0 1 2574.02 1126)">
   <path d="M35.1562 12.4023L90.6738 12.4023Q99.0723 12.4023 103.784 7.6416Q108.496 2.88086 108.496-5.81055L108.496-55.5176L93.3594-40.4297L93.3594-7.95898Q93.3594-5.17578 92.1143-3.95508Q90.8691-2.73438 88.623-2.73438L37.1582-2.73438Q34.6191-2.73438 33.3008-3.95508Q31.9824-5.17578 31.9824-7.95898L31.9824-58.8867Q31.9824-61.6211 33.3008-62.8662Q34.6191-64.1113 37.1582-64.1113L70.0195-64.1113L85.1074-79.1992L35.1562-79.1992Q26.416-79.1992 21.6553-74.4629Q16.8945-69.7266 16.8945-61.0352L16.8945-5.81055Q16.8945 2.88086 21.6553 7.6416Q26.416 12.4023 35.1562 12.4023ZM55.7617-23.3887L67.041-27.7344L107.666-68.4082L97.8027-78.2715L57.1777-37.6465L52.7344-26.4648Q52.1484-24.9512 53.2959-23.9258Q54.4434-22.9004 55.7617-23.3887ZM111.084-71.7285L115.283-76.2207Q117.09-78.125 117.285-80.6396Q117.48-83.1543 115.625-85.0098L113.965-86.8164Q112.402-88.4277 109.912-88.0859Q107.422-87.7441 105.566-85.9375L101.123-81.6406Z"/>
  </g>
  <g id="Bold-M" transform="matrix(1 0 0 1 2277.97 1126)">
   <path d="M34.375 11.4258L90.4785 11.4258Q98.291 11.4258 102.612 7.00684Q106.934 2.58789 106.934-5.71289L106.934-56.2988L94.3359-43.7012L94.3359-7.27539Q94.3359-4.15039 92.8955-2.66113Q91.4551-1.17188 89.1113-1.17188L35.7422-1.17188Q32.8125-1.17188 31.25-2.66113Q29.6875-4.15039 29.6875-7.27539L29.6875-59.7168Q29.6875-62.8418 31.25-64.3311Q32.8125-65.8203 35.7422-65.8203L72.6074-65.8203L85.2051-78.418L34.375-78.418Q26.0254-78.418 21.5576-73.999Q17.0898-69.5801 17.0898-61.2793L17.0898-5.71289Q17.0898 2.58789 21.5576 7.00684Q26.0254 11.4258 34.375 11.4258ZM54.0039-22.9004L64.6484-27.1973L107.031-69.5801L98.2422-78.3203L55.9082-35.9863L51.4648-25.4883Q50.9766-24.2676 51.9287-23.3887Q52.8809-22.5098 54.0039-22.9004ZM110.498-72.998L114.453-77.1484Q116.064-78.8574 116.187-81.0547Q116.309-83.252 114.697-84.9121L113.184-86.4746Q111.816-87.8906 109.619-87.6465Q107.422-87.4023 105.811-85.791L101.66-81.7871Z"/>
  </g>
  <g id="Semibold-M" transform="matrix(1 0 0 1 1981.72 1126)">
   <path d="M33.7891 10.791L90.332 10.791Q97.7051 10.791 101.782 6.5918Q105.859 2.39258 105.859-5.66406L105.859-56.7871L94.9707-45.9473L94.9707-6.73828Q94.9707-3.36914 93.4082-1.7334Q91.8457-0.0976562 89.4531-0.0976562L34.7168-0.0976562Q31.4941-0.0976562 29.8096-1.7334Q28.125-3.36914 28.125-6.73828L28.125-60.3027Q28.125-63.6719 29.8096-65.332Q31.4941-66.9922 34.7168-66.9922L74.3652-66.9922L85.2051-77.8809L33.7891-77.8809Q25.6836-77.8809 21.46-73.6816Q17.2363-69.4824 17.2363-61.4746L17.2363-5.66406Q17.2363 2.39258 21.46 6.5918Q25.6836 10.791 33.7891 10.791ZM52.7344-22.5586L62.9883-26.8066L106.543-70.3613L98.5352-78.3203L54.9805-34.8145L50.5859-24.7559Q50.1953-23.7793 51.001-22.998Q51.8066-22.2168 52.7344-22.5586ZM110.059-73.8281L113.867-77.7832Q115.332-79.3457 115.43-81.3232Q115.527-83.3008 114.014-84.7656L112.646-86.2305Q111.377-87.5488 109.399-87.3535Q107.422-87.1582 105.957-85.6934L102.002-81.8848Z"/>
  </g>
  <g id="Medium-M" transform="matrix(1 0 0 1 1685.35 1126)">
   <path d="M33.3496 10.2539L90.2832 10.2539Q97.2656 10.2539 101.172 6.25Q105.078 2.24609 105.078-5.56641L105.078-57.1777L95.5078-47.6074L95.5078-6.39648Q95.5078-2.83203 93.8232-1.07422Q92.1387 0.683594 89.6973 0.683594L33.9355 0.683594Q30.5664 0.683594 28.7354-1.07422Q26.9043-2.83203 26.9043-6.39648L26.9043-60.7422Q26.9043-64.3066 28.7354-66.0889Q30.5664-67.8711 33.9355-67.8711L75.6836-67.8711L85.2539-77.4414L33.3496-77.4414Q25.4883-77.4414 21.4111-73.4375Q17.334-69.4336 17.334-61.5723L17.334-5.56641Q17.334 2.24609 21.4111 6.25Q25.4883 10.2539 33.3496 10.2539ZM51.8066-22.3145L61.7188-26.5625L106.201-70.9473L98.7305-78.3203L54.3457-33.9355L49.9512-24.2676Q49.5605-23.4375 50.2686-22.7295Q50.9766-22.0215 51.8066-22.3145ZM109.717-74.4629L113.428-78.2715Q114.795-79.7363 114.844-81.543Q114.893-83.3496 113.477-84.7168L112.256-86.0352Q111.035-87.2559 109.229-87.1094Q107.422-86.9629 106.055-85.6445L102.295-81.9336Z"/>
  </g>
  <g id="Regular-M" transform="matrix(1 0 0 1 1389.1 1126)">
   <path d="M32.8125 9.61914L90.1367 9.61914Q96.7285 9.61914 100.366 5.83496Q104.004 2.05078 104.004-5.51758L104.004-57.7148L96.1426-49.8535L96.1426-5.9082Q96.1426-2.09961 94.3359-0.170898Q92.5293 1.75781 90.0391 1.75781L32.959 1.75781Q29.2969 1.75781 27.3193-0.170898Q25.3418-2.09961 25.3418-5.9082L25.3418-61.3281Q25.3418-65.1367 27.3193-67.0898Q29.2969-69.043 32.959-69.043L77.4414-69.043L85.3027-76.9043L32.8125-76.9043Q25.1953-76.9043 21.3379-73.1201Q17.4805-69.3359 17.4805-61.7676L17.4805-5.51758Q17.4805 2.05078 21.3379 5.83496Q25.1953 9.61914 32.8125 9.61914ZM50.5859-22.0215L60.1074-26.1719L105.713-71.7285L99.0234-78.3203L53.4668-32.7637L49.0723-23.584Q48.7793-22.9492 49.3408-22.3389Q49.9023-21.7285 50.5859-22.0215ZM109.326-75.293L112.842-78.9062Q114.062-80.2246 114.087-81.8115Q114.111-83.3984 112.842-84.6191L111.719-85.791Q110.596-86.9141 109.009-86.8164Q107.422-86.7188 106.201-85.5469L102.637-82.0312Z"/>
  </g>
  <g id="Light-M" transform="matrix(1 0 0 1 1093.17 1126)">
   <path d="M32.0312 8.74023L88.8672 8.74023Q95.3125 8.74023 98.8037 5.12695Q102.295 1.51367 102.295-5.56641L102.295-57.6172L96.2891-51.6113L96.2891-5.85938Q96.2891-1.61133 94.1895 0.537109Q92.0898 2.68555 88.7695 2.68555L32.1777 2.68555Q28.0273 2.68555 25.8545 0.537109Q23.6816-1.61133 23.6816-5.85938L23.6816-61.377Q23.6816-65.5762 25.8545-67.749Q28.0273-69.9219 32.1777-69.9219L78.3203-69.9219L84.3262-75.9766L32.0312-75.9766Q24.9023-75.9766 21.2646-72.3877Q17.627-68.7988 17.627-61.6699L17.627-5.56641Q17.627 1.5625 21.2646 5.15137Q24.9023 8.74023 32.0312 8.74023ZM51.123-23.584L59.4727-27.3438L105.029-72.8516L99.3652-78.4668L53.8574-32.959L49.9023-24.8535Q49.6094-24.3164 50.0732-23.8281Q50.5371-23.3398 51.123-23.584ZM108.301-76.123L111.475-79.3457Q112.646-80.5664 112.671-81.9336Q112.695-83.3008 111.523-84.4238L110.742-85.2539Q109.717-86.2305 108.35-86.1572Q106.982-86.084 105.859-84.9609L102.637-81.7871Z"/>
  </g>
  <g id="Thin-M" transform="matrix(1 0 0 1 797.462 1126)">
   <path d="M31.0059 7.56836L87.207 7.56836Q93.5059 7.56836 96.7773 4.19922Q100.049 0.830078 100.049-5.56641L100.049-57.5195L96.4355-53.9551L96.4355-5.76172Q96.4355-0.976562 93.9453 1.48926Q91.4551 3.95508 87.1094 3.95508L31.1035 3.95508Q26.3672 3.95508 23.9014 1.48926Q21.4355-0.976562 21.4355-5.76172L21.4355-61.377Q21.4355-66.2109 23.9014-68.6523Q26.3672-71.0938 31.1035-71.0938L79.4434-71.0938L83.0566-74.707L31.0059-74.707Q24.5117-74.707 21.1426-71.3867Q17.7734-68.0664 17.7734-61.5723L17.7734-5.56641Q17.7734 0.878906 21.1426 4.22363Q24.5117 7.56836 31.0059 7.56836ZM51.8066-25.6836L58.6426-28.9551L104.102-74.3652L99.8535-78.6621L54.3945-33.252L50.9766-26.5137Q50.7324-26.1719 51.0742-25.8301Q51.416-25.4883 51.8066-25.6836ZM106.982-77.1973L109.668-79.9316Q110.742-81.0059 110.767-82.0557Q110.791-83.1055 109.814-84.1309L109.473-84.4727Q108.594-85.3516 107.471-85.2783Q106.348-85.2051 105.371-84.2285L102.637-81.4941Z"/>
  </g>
  <g id="Ultralight-M" transform="matrix(1 0 0 1 501.288 1126)">
   <path d="M30.4688 6.93359L86.377 6.93359Q92.5293 6.93359 95.7275 3.68652Q98.9258 0.439453 98.9258-5.61523L98.9258-57.4707L96.5332-55.127L96.5332-5.71289Q96.5332-0.634766 93.8477 1.97754Q91.1621 4.58984 86.2793 4.58984L30.5664 4.58984Q25.4883 4.58984 22.9004 1.97754Q20.3125-0.634766 20.3125-5.71289L20.3125-61.4258Q20.3125-66.5039 22.9004-69.1162Q25.4883-71.7285 30.5664-71.7285L80.0293-71.7285L82.373-74.0723L30.4688-74.0723Q24.2676-74.0723 21.0693-70.8984Q17.8711-67.7246 17.8711-61.5234L17.8711-5.61523Q17.8711 0.537109 21.0693 3.73535Q24.2676 6.93359 30.4688 6.93359ZM52.1973-26.7578L58.252-29.7363L103.613-75.1465L100.049-78.7598L54.6875-33.3984L51.5137-27.3926Q51.3184-27.0996 51.5869-26.8555Q51.8555-26.6113 52.1973-26.7578ZM106.299-77.7344L108.74-80.2246Q109.766-81.2012 109.814-82.1289Q109.863-83.0566 108.936-83.9844L108.789-84.1309Q108.008-84.9121 107.031-84.8389Q106.055-84.7656 105.127-83.8379L102.637-81.3477Z"/>
  </g>
  <g id="Black-S" transform="matrix(1 0 0 1 2883.69 696)">
   <path d="M28.2715 2.92969L71.1426 2.92969Q78.3203 2.92969 82.3486-1.09863Q86.377-5.12695 86.377-12.3047L86.377-50.3906L72.2168-36.2305L72.2168-14.5508Q72.2168-12.7441 71.4111-11.9873Q70.6055-11.2305 68.8965-11.2305L30.5176-11.2305Q28.8574-11.2305 28.0273-11.9873Q27.1973-12.7441 27.1973-14.5508L27.1973-52.9297Q27.1973-54.7852 28.0273-55.5176Q28.8574-56.25 30.5176-56.25L52.3926-56.25L66.5527-70.4102L28.2715-70.4102Q21.0938-70.4102 17.0654-66.3818Q13.0371-62.3535 13.0371-55.1758L13.0371-12.3047Q13.0371-5.12695 17.0654-1.09863Q21.0938 2.92969 28.2715 2.92969ZM45.459-26.4648L54.834-29.9805L85.0098-60.1562L76.2207-68.9453L46.0449-38.7695L42.5781-29.3945Q42.041-27.9297 43.1396-26.9775Q44.2383-26.0254 45.459-26.4648ZM87.5488-62.6953L91.0645-66.4551Q92.6758-68.1641 92.8711-70.4346Q93.0664-72.7051 91.4551-74.3652L89.9902-75.9277Q88.623-77.3438 86.4014-77.002Q84.1797-76.6602 82.4707-75.0488L78.7598-71.4844Z"/>
  </g>
  <g id="Heavy-S" transform="matrix(1 0 0 1 2587.4 696)">
   <path d="M27.7344 2.29492L71.1426 2.29492Q77.8809 2.29492 81.6406-1.48926Q85.4004-5.27344 85.4004-12.207L85.4004-50.9766L72.9492-38.4766L72.9492-14.0137Q72.9492-11.9629 72.0215-11.0596Q71.0938-10.1562 69.4336-10.1562L29.4922-10.1562Q27.5879-10.1562 26.6357-11.0596Q25.6836-11.9629 25.6836-14.0137L25.6836-53.5645Q25.6836-55.6641 26.6357-56.543Q27.5879-57.4219 29.4922-57.4219L54.248-57.4219L66.748-69.9219L27.7344-69.9219Q20.8008-69.9219 16.9922-66.1133Q13.1836-62.3047 13.1836-55.3711L13.1836-12.207Q13.1836-5.27344 16.9922-1.48926Q20.8008 2.29492 27.7344 2.29492ZM44.043-25.9277L53.0762-29.3945L84.5703-60.8887L76.5137-68.9453L45.0195-37.4512L41.5039-28.4668Q41.0156-27.2461 41.9922-26.3916Q42.9688-25.5371 44.043-25.9277ZM87.207-63.5254L90.5762-67.0898Q92.041-68.6523 92.2119-70.7275Q92.3828-72.8027 90.8691-74.2676L89.502-75.7324Q88.2324-77.0508 86.2305-76.7578Q84.2285-76.4648 82.666-75L79.1504-71.582Z"/>
  </g>
  <g id="Bold-S" transform="matrix(1 0 0 1 2291.13 696)">
   <path d="M27.1973 1.66016L71.1914 1.66016Q77.3926 1.66016 80.8838-1.9043Q84.375-5.46875 84.375-12.1094L84.375-51.6602L73.7305-41.0645L73.7305-13.4277Q73.7305-11.1328 72.7051-10.0586Q71.6797-8.98438 70.0195-8.98438L28.3691-8.98438Q26.2207-8.98438 25.0977-10.0586Q23.9746-11.1328 23.9746-13.4277L23.9746-54.2969Q23.9746-56.6406 25.0977-57.7148Q26.2207-58.7891 28.3691-58.7891L56.3477-58.7891L66.9434-69.3848L27.1973-69.3848Q20.5078-69.3848 16.9189-65.8447Q13.3301-62.3047 13.3301-55.6152L13.3301-12.1094Q13.3301-5.46875 16.9189-1.9043Q20.5078 1.66016 27.1973 1.66016ZM42.4316-25.293L51.123-28.7598L84.082-61.7188L76.8066-68.9453L43.8965-35.9863L40.332-27.4414Q39.9414-26.4648 40.7227-25.708Q41.5039-24.9512 42.4316-25.293ZM86.8652-64.502L90.0879-67.8711Q91.3574-69.2383 91.4795-71.0693Q91.6016-72.9004 90.2832-74.2188L89.0137-75.5371Q87.8418-76.709 86.0596-76.4893Q84.2773-76.2695 82.959-75L79.5898-71.7285Z"/>
  </g>
  <g id="Semibold-S" transform="matrix(1 0 0 1 1994.73 696)">
   <path d="M26.7578 1.17188L71.1914 1.17188Q77.0508 1.17188 80.3223-2.19727Q83.5938-5.56641 83.5938-12.0605L83.5938-52.0996L74.2676-42.7734L74.2676-13.0371Q74.2676-10.5469 73.1689-9.35059Q72.0703-8.1543 70.4102-8.1543L27.5391-8.1543Q25.2441-8.1543 23.999-9.35059Q22.7539-10.5469 22.7539-13.0371L22.7539-54.7852Q22.7539-57.2754 23.999-58.4717Q25.2441-59.668 27.5391-59.668L57.7637-59.668L67.041-68.9941L26.7578-68.9941Q20.2637-68.9941 16.8457-65.625Q13.4277-62.2559 13.4277-55.7617L13.4277-12.0605Q13.4277-5.56641 16.8457-2.19727Q20.2637 1.17188 26.7578 1.17188ZM41.3086-24.8535L49.7559-28.3203L83.7402-62.3047L77.002-68.8965L43.0664-34.9609L39.502-26.709Q39.1602-25.8789 39.8438-25.2197Q40.5273-24.5605 41.3086-24.8535ZM86.5723-65.1367L89.6973-68.3594Q90.8691-69.6289 90.9424-71.2891Q91.0156-72.9492 89.8438-74.1211L88.623-75.3418Q87.5488-76.4648 85.9375-76.2939Q84.3262-76.123 83.1055-74.9512L79.8828-71.8262Z"/>
  </g>
  <g id="Medium-S" transform="matrix(1 0 0 1 1698.26 696)">
   <path d="M26.4648 0.830078L71.2402 0.830078Q76.8066 0.830078 79.9316-2.41699Q83.0566-5.66406 83.0566-11.9629L83.0566-52.4414L74.707-44.1406L74.707-12.6953Q74.707-10.1074 73.5352-8.81348Q72.3633-7.51953 70.752-7.51953L26.9531-7.51953Q24.5117-7.51953 23.1934-8.81348Q21.875-10.1074 21.875-12.6953L21.875-55.1758Q21.875-57.8125 23.1934-59.082Q24.5117-60.3516 26.9531-60.3516L58.8379-60.3516L67.1387-68.7012L26.4648-68.7012Q20.0684-68.7012 16.7969-65.4785Q13.5254-62.2559 13.5254-55.9082L13.5254-11.9629Q13.5254-5.66406 16.7969-2.41699Q20.0684 0.830078 26.4648 0.830078ZM40.4785-24.5605L48.7305-27.9785L83.4961-62.6953L77.1973-68.8965L42.4805-34.2285L38.916-26.1719Q38.5742-25.4883 39.1602-24.8779Q39.7461-24.2676 40.4785-24.5605ZM86.377-65.625L89.4043-68.75Q90.5273-69.9219 90.5762-71.46Q90.625-72.998 89.502-74.0723L88.3301-75.2441Q87.3535-76.2695 85.8398-76.1475Q84.3262-76.0254 83.252-74.9512L80.127-71.875Z"/>
  </g>
  <g id="Regular-S" transform="matrix(1 0 0 1 1401.87 696)">
   <path d="M26.0742 0.341797L71.2402 0.341797Q76.4648 0.341797 79.3945-2.70996Q82.3242-5.76172 82.3242-11.9141L82.3242-52.8809L75.2441-45.8496L75.2441-12.3047Q75.2441-9.52148 73.999-8.10547Q72.7539-6.68945 71.1426-6.68945L26.1719-6.68945Q23.5352-6.68945 22.1191-8.10547Q20.7031-9.52148 20.7031-12.3047L20.7031-55.6641Q20.7031-58.4473 22.1191-59.8633Q23.5352-61.2793 26.1719-61.2793L60.2539-61.2793L67.2852-68.3105L26.0742-68.3105Q19.873-68.3105 16.748-65.2588Q13.623-62.207 13.623-56.0547L13.623-11.9141Q13.623-5.76172 16.748-2.70996Q19.873 0.341797 26.0742 0.341797ZM39.4043-24.1211L47.4121-27.5391L83.1543-63.2812L77.3926-68.8965L41.6992-33.2031L38.0859-25.4883Q37.793-24.9512 38.2812-24.4141Q38.7695-23.877 39.4043-24.1211ZM86.1328-66.2598L89.0625-69.2383Q90.0391-70.3125 90.0635-71.6797Q90.0879-73.0469 89.0625-74.0234L87.9883-75.0977Q87.0605-76.0254 85.7178-75.9521Q84.375-75.8789 83.3984-74.9023L80.4199-71.9727Z"/>
  </g>
  <g id="Light-S" transform="matrix(1 0 0 1 1105.84 696)">
   <path d="M25.3906-0.439453L70.1172-0.439453Q75.2441-0.439453 78.0273-3.34473Q80.8105-6.25 80.8105-11.9629L80.8105-52.832L75.3418-47.4121L75.3418-12.2559Q75.3418-9.08203 73.8281-7.4707Q72.3145-5.85938 70.0195-5.85938L25.4883-5.85938Q22.4121-5.85938 20.8008-7.4707Q19.1895-9.08203 19.1895-12.2559L19.1895-55.7129Q19.1895-58.8379 20.8008-60.4492Q22.4121-62.0605 25.4883-62.0605L60.9863-62.0605L66.4551-67.4805L25.3906-67.4805Q19.6289-67.4805 16.6748-64.5996Q13.7207-61.7188 13.7207-56.0059L13.7207-11.9629Q13.7207-6.20117 16.6748-3.32031Q19.6289-0.439453 25.3906-0.439453ZM39.8926-25.5371L46.875-28.6133L82.5195-64.2578L77.6855-69.043L42.041-33.3984L38.8184-26.6113Q38.5254-26.1719 38.9404-25.7324Q39.3555-25.293 39.8926-25.5371ZM85.2539-66.9922L87.8418-69.6289Q88.7695-70.6055 88.7939-71.7773Q88.8184-72.9492 87.8906-73.8281L87.1582-74.6094Q86.2793-75.4395 85.1318-75.3662Q83.9844-75.293 83.0566-74.4141L80.4199-71.7773Z"/>
  </g>
  <g id="Thin-S" transform="matrix(1 0 0 1 810.06 696)">
   <path d="M24.4629-1.46484L68.6523-1.46484Q73.584-1.46484 76.2207-4.15039Q78.8574-6.83594 78.8574-11.9629L78.8574-52.7344L75.5371-49.4141L75.5371-12.1582Q75.5371-8.49609 73.6572-6.64062Q71.7773-4.78516 68.5547-4.78516L24.5605-4.78516Q20.9473-4.78516 19.0918-6.64062Q17.2363-8.49609 17.2363-12.1582L17.2363-55.7129Q17.2363-59.375 19.0918-61.2305Q20.9473-63.0859 24.5605-63.0859L62.0117-63.0859L65.332-66.4062L24.4629-66.4062Q19.2871-66.4062 16.6016-63.7451Q13.916-61.084 13.916-55.9082L13.916-11.9629Q13.916-6.83594 16.6016-4.15039Q19.2871-1.46484 24.4629-1.46484ZM40.4785-27.3438L46.0938-30.0293L81.6895-65.625L78.0762-69.1895L42.5293-33.6426L39.7461-28.125Q39.5508-27.7832 39.8438-27.4902Q40.1367-27.1973 40.4785-27.3438ZM84.082-67.9199L86.2305-70.166Q87.1094-70.9961 87.1338-71.8994Q87.1582-72.8027 86.377-73.584L86.0352-73.9258Q85.2539-74.707 84.3506-74.6338Q83.4473-74.5605 82.666-73.7305L80.4199-71.5332Z"/>
  </g>
  <g id="Ultralight-S" transform="matrix(1 0 0 1 513.813 696)">
   <path d="M23.9746-2.00195L67.8711-2.00195Q72.7539-2.00195 75.293-4.58984Q77.832-7.17773 77.832-12.0117L77.832-52.6855L75.5859-50.4883L75.5859-12.1094Q75.5859-8.20312 73.5352-6.22559Q71.4844-4.24805 67.7734-4.24805L24.0723-4.24805Q20.166-4.24805 18.1885-6.22559Q16.2109-8.20312 16.2109-12.1094L16.2109-55.7617Q16.2109-59.668 18.1885-61.6455Q20.166-63.623 24.0723-63.623L62.5-63.623L64.7461-65.8691L23.9746-65.8691Q19.0918-65.8691 16.5283-63.3057Q13.9648-60.7422 13.9648-55.8594L13.9648-12.0117Q13.9648-7.12891 16.5283-4.56543Q19.0918-2.00195 23.9746-2.00195ZM40.8203-28.3203L45.752-30.7617L81.2988-66.2598L78.3203-69.2871L42.7734-33.7402L40.2344-28.9062Q40.0391-28.5645 40.2832-28.3691Q40.5273-28.1738 40.8203-28.3203ZM83.4473-68.4082L85.4492-70.4102Q86.2793-71.2402 86.3037-71.9727Q86.3281-72.7051 85.5469-73.4863L85.4492-73.584Q84.7656-74.3164 83.96-74.2432Q83.1543-74.1699 82.4219-73.3887L80.4199-71.4355Z"/>
  </g>
 </g>
</svg>
